Coordinates
version=1
nRows=18
nColumns=63
inDegrees=yes

Units are S.I. units (second, meters, Newtons, ...)
If the header above contains a line with 'inDegrees', this indicates whether rotational values are in degrees (yes) or radians (no).

endheader
time	pelvis_tilt	pelvis_list	pelvis_rotation	pelvis_tx	pelvis_ty	pelvis_tz	hip_flexion_r	hip_adduction_r	hip_rotation_r	knee_angle_r	knee_angle_r_beta	ankle_angle_r	subtalar_angle_r	mtp_angle_r	hip_flexion_l	hip_adduction_l	hip_rotation_l	knee_angle_l	knee_angle_l_beta	ankle_angle_l	subtalar_angle_l	mtp_angle_l	L5_S1_Flex_Ext	L5_S1_Lat_Bending	L5_S1_axial_rotation	L4_L5_Flex_Ext	L4_L5_Lat_Bending	L4_L5_axial_rotation	L3_L4_Flex_Ext	L3_L4_Lat_Bending	L3_L4_axial_rotation	L2_L3_Flex_Ext	L2_L3_Lat_Bending	L2_L3_axial_rotation	L1_L2_Flex_Ext	L1_L2_Lat_Bending	L1_L2_axial_rotation	L1_T12_Flex_Ext	L1_T12_Lat_Bending	L1_T12_axial_rotation	Abs_r3	Abs_r2	Abs_r1	Abs_t1	Abs_t2	neck_flexion	neck_bending	neck_rotation	arm_flex_r	arm_add_r	arm_rot_r	elbow_flex_r	pro_sup_r	wrist_flex_r	wrist_dev_r	arm_flex_l	arm_add_l	arm_rot_l	elbow_flex_l	pro_sup_l	wrist_flex_l	wrist_dev_l
0.000000	-2.606292	-5.015370	80.501471	0.261893	0.866089	0.619313	13.042297	-6.327100	-21.976700	23.682239	0.413333	42.840301	10.979456	0.000000	8.133635	4.693704	38.116310	13.323910	0.232546	31.743707	-3.944392	0.000000	0.243318	-0.571516	1.645114	0.451866	-0.760116	1.747934	0.399747	-1.389584	1.747934	0.278088	-1.389584	1.439475	0.225945	-1.165435	1.336655	0.139032	-0.885278	1.233836	1.737996	-6.465102	9.149631	0.000000	0.000000	26.294057	-0.709355	-13.329634	19.300173	12.421763	215.253343	-2.436332	12.663128	-11.641975	-0.642134	28.019137	2.347862	106.751544	24.188806	54.558990	-5.662066	8.874646
0.016667	-1.662622	-5.121920	79.858674	0.262655	0.866843	0.621317	12.452372	-3.926716	-11.530817	21.055440	0.367487	41.404984	2.999898	0.000000	8.315518	3.829713	37.928867	13.841549	0.241581	32.048440	-6.192445	0.000000	0.228654	-0.430301	1.733082	0.424632	-0.572300	1.841399	0.375655	-1.046233	1.841399	0.261328	-1.046233	1.516446	0.212328	-0.877469	1.408129	0.130653	-0.666536	1.299811	1.633249	-4.867649	9.638880	0.000000	0.000000	26.143262	-0.991752	-11.780922	18.969334	8.616352	178.301512	5.029636	21.695415	-11.483711	-3.255044	27.138370	1.940159	105.379408	25.685394	49.055245	-6.966779	8.481722
0.033333	-0.881687	-5.184906	79.364313	0.263138	0.867629	0.622908	11.919923	-1.981524	-3.090345	18.875842	0.329446	40.216153	-3.541652	0.000000	8.451846	3.126069	37.791062	14.262373	0.248925	32.321052	-7.828943	0.000000	0.214638	-0.311300	1.800770	0.398605	-0.414029	1.913318	0.352629	-0.756895	1.913318	0.245310	-0.756895	1.575674	0.199313	-0.634803	1.463126	0.122644	-0.482204	1.350578	1.533139	-3.521487	10.015343	0.000000	0.000000	25.972544	-1.256736	-10.443060	18.679015	5.448048	147.946992	11.234637	29.970689	-11.513222	-5.328477	26.375222	1.575788	104.332099	26.979736	44.237480	-8.012654	7.984015
0.050000	-0.250669	-5.209118	79.003874	0.263375	0.868434	0.624125	11.441957	-0.452257	3.516204	17.107074	0.298575	39.253969	-8.763963	0.000000	8.546663	2.569405	37.698267	14.595727	0.254743	32.560976	-8.915775	0.000000	0.201325	-0.212887	1.850121	0.373880	-0.283139	1.965753	0.330757	-0.517613	1.965753	0.230094	-0.517613	1.618856	0.186950	-0.434118	1.503223	0.115037	-0.329761	1.387590	1.438043	-2.408216	10.289816	0.000000	0.000000	25.785394	-1.503404	-9.301760	18.425297	2.864377	123.599369	16.285157	37.499093	-11.699492	-6.910596	25.723370	1.252914	103.572699	28.085097	40.080992	-8.825954	7.405431
0.066667	0.243250	-5.199346	78.762841	0.263397	0.869243	0.625005	11.015479	0.700357	8.460315	15.712765	0.274239	38.498595	-12.785801	0.000000	8.604007	2.146352	37.645856	14.850951	0.259198	32.767650	-9.514828	0.000000	0.188766	-0.133435	1.883075	0.350558	-0.177468	2.000767	0.310124	-0.324433	2.000767	0.215741	-0.324433	1.647690	0.175289	-0.272100	1.529998	0.107861	-0.206690	1.412306	1.348340	-1.509439	10.473097	0.000000	0.000000	25.585304	-1.730852	-8.342734	18.204259	0.812868	104.668226	20.287683	44.290774	-12.011507	-8.049564	25.176491	0.969703	103.064291	29.014737	36.561076	-9.432942	6.769877
0.083333	0.612886	-5.160380	78.626701	0.263238	0.870042	0.625584	10.637497	1.515587	11.913476	14.656545	0.255805	37.930193	-15.725933	0.000000	8.627920	1.843541	37.629200	15.037389	0.262452	32.940508	-9.687991	0.000000	0.177016	-0.071318	1.901574	0.328736	-0.094852	2.020422	0.290819	-0.173401	2.020422	0.202311	-0.173401	1.663877	0.164377	-0.145431	1.545029	0.101147	-0.110471	1.426180	1.264406	-0.806758	10.575983	0.000000	0.000000	25.375767	-1.938176	-7.551696	18.011980	-0.758954	90.563149	23.348703	50.355877	-12.418253	-8.793544	24.728260	0.724321	102.769956	29.781919	33.653028	-9.859883	6.101261
0.100000	0.871058	-5.097009	78.580938	0.262928	0.870814	0.625902	10.305015	2.032703	14.047173	13.902042	0.242636	37.528926	-17.703126	0.000000	8.622442	1.647604	37.643672	15.164384	0.264668	33.078986	-9.497152	0.000000	0.166126	-0.024909	1.907559	0.308513	-0.033129	2.026782	0.272928	-0.060564	2.026782	0.189865	-0.060564	1.669114	0.154265	-0.050794	1.549892	0.094924	-0.038584	1.430669	1.186622	-0.281775	10.609272	0.000000	0.000000	25.160275	-2.124471	-6.914359	17.844539	-1.903560	80.693721	25.574703	55.704547	-12.888715	-9.190701	24.372354	0.514931	102.652778	30.399907	31.332143	-10.133040	5.423489
0.116667	1.030581	-5.014025	78.611037	0.262501	0.871547	0.625996	10.015039	2.290974	15.032894	13.412885	0.234099	37.274955	-18.836148	0.000000	8.591615	1.545173	37.684645	15.241276	0.266010	33.182518	-9.004199	0.000000	0.156150	0.007418	1.902972	0.289986	0.009865	2.021908	0.256539	0.018035	2.021908	0.178464	0.018035	1.665101	0.145001	0.015126	1.546165	0.089224	0.011490	1.427229	1.115364	0.083910	10.583760	0.000000	0.000000	24.942320	-2.288834	-6.416434	17.698015	-2.673424	74.469529	27.072170	60.346931	-13.391879	-9.289198	24.102450	0.339701	102.675838	30.881962	29.573718	-10.278676	4.760467
0.133333	1.104274	-4.916216	78.702485	0.261987	0.872226	0.625902	9.764577	2.329670	15.042124	13.152705	0.229558	37.148443	-19.243765	0.000000	8.539478	1.522880	37.747492	15.277410	0.266641	33.250541	-8.271020	0.000000	0.147141	0.027289	1.889754	0.273255	0.036294	2.007864	0.241737	0.066349	2.007864	0.168167	0.066349	1.653535	0.136635	0.055647	1.535425	0.084076	0.042270	1.417316	1.051010	0.308693	10.510245	0.000000	0.000000	24.725393	-2.430362	-6.043636	17.568488	-3.121019	71.300156	27.947590	64.293174	-13.896729	-9.137198	23.912225	0.196794	102.802219	31.241347	28.353047	-10.323055	4.136104
0.150000	1.104954	-4.808372	78.840766	0.261421	0.872835	0.625659	9.550632	2.188061	14.246350	13.085129	0.228379	37.129551	-19.044745	0.000000	8.470073	1.567355	37.827584	15.282127	0.266723	33.282490	-7.359503	0.000000	0.139151	0.036330	1.869846	0.258417	0.048319	1.986712	0.228611	0.088333	1.986712	0.159035	0.088333	1.636116	0.129215	0.074084	1.519250	0.079511	0.056275	1.402385	0.993939	0.410974	10.399525	0.000000	0.000000	24.512988	-2.548150	-5.781677	17.452036	-3.298817	70.595186	28.307451	67.553422	-14.372253	-8.782864	23.795355	0.084376	102.995002	31.491324	27.645426	-10.292441	3.574304
0.166667	1.045437	-4.695284	79.011365	0.260832	0.873360	0.625304	9.370213	1.905416	12.817060	13.173787	0.229926	37.198443	-18.357854	0.000000	8.387440	1.665231	37.920294	15.264769	0.266420	33.277800	-6.331537	0.000000	0.132233	0.036169	1.845191	0.245570	0.048105	1.960515	0.217246	0.087941	1.960515	0.151129	0.087941	1.614542	0.122792	0.073756	1.499217	0.075558	0.056026	1.383893	0.944529	0.409150	10.262396	0.000000	0.000000	24.308596	-2.641295	-5.616269	17.344738	-3.259291	71.764206	28.258240	70.137819	-14.787433	-8.274360	23.745516	0.000612	103.217271	31.645156	27.426152	-10.213096	3.098976
0.183333	0.935440	-4.589591	79.196978	0.260181	0.873682	0.624921	9.223195	1.476897	10.877525	13.424853	0.234308	37.308941	-17.217541	0.000000	8.318056	1.818633	38.016000	15.255541	0.266259	33.279117	-5.416147	0.000000	0.126204	0.029823	1.806862	0.234374	0.039664	1.919791	0.207341	0.072511	1.919791	0.144239	0.072511	1.581005	0.117193	0.060814	1.468076	0.072113	0.046195	1.355147	0.901464	0.337360	10.049227	0.000000	0.000000	24.177899	-2.724573	-5.436877	17.174538	-3.231808	72.301727	28.438507	73.432959	-15.113855	-7.580392	23.764351	-0.028222	103.622554	31.705363	26.620368	-10.342419	2.488825
0.200000	0.804612	-4.483397	79.339909	0.259747	0.873988	0.624566	9.121917	1.064700	8.784932	13.685507	0.238857	37.551663	-15.759622	0.000000	8.222228	1.969275	38.120423	15.253818	0.266229	33.125875	-4.546705	0.000000	0.121316	0.016282	1.782067	0.225296	0.021655	1.893446	0.199310	0.039588	1.893446	0.138652	0.039588	1.559308	0.112654	0.033202	1.447929	0.069320	0.025221	1.336550	0.866548	0.184186	9.911321	0.000000	0.000000	24.021892	-2.752398	-5.422638	17.085578	-2.936532	75.411273	27.924957	73.656024	-15.206273	-7.007788	23.802022	-0.082430	103.683793	31.748671	26.955533	-10.458232	2.324094
0.216667	0.698210	-4.381486	79.491115	0.259609	0.874287	0.624131	8.935997	0.827492	7.352633	13.751026	0.240001	37.606397	-15.097102	0.000000	8.086368	2.060299	38.233355	15.242626	0.266034	32.879500	-3.688919	0.000000	0.119082	0.000409	1.764666	0.221146	0.000544	1.874958	0.195639	0.000994	1.874958	0.136098	0.000994	1.544083	0.110579	0.000834	1.433791	0.068043	0.000633	1.323499	0.850588	0.004625	9.814543	0.000000	0.000000	23.813747	-2.735635	-5.529820	17.021181	-2.352126	79.868119	26.667831	71.590857	-14.854771	-6.897846	23.889668	-0.133991	103.673493	31.740222	28.195989	-10.557915	2.571184
0.233333	0.650286	-4.299639	79.611036	0.259372	0.874379	0.623751	8.761607	0.652548	5.941385	13.830078	0.241380	37.648831	-14.400766	0.000000	7.972735	2.113242	38.355843	15.325516	0.267481	32.642858	-2.967852	0.000000	0.117330	-0.005701	1.753170	0.217893	-0.007583	1.862743	0.192761	-0.013863	1.862743	0.134096	-0.013863	1.534024	0.108953	-0.011626	1.424451	0.067042	-0.008832	1.314878	0.838076	-0.064496	9.750606	0.000000	0.000000	23.617446	-2.746980	-5.601300	16.814967	-2.308998	78.490335	26.769719	71.680968	-14.454857	-6.379839	24.032257	-0.084866	103.516478	31.655215	30.391265	-10.567515	3.219612
0.250000	0.569982	-4.243619	79.668746	0.259207	0.874247	0.623499	8.669934	0.439439	4.416012	14.018000	0.244660	37.747881	-13.490003	0.000000	7.890730	2.197906	38.449241	15.443901	0.269547	32.412046	-2.414855	0.000000	0.116670	-0.015532	1.751421	0.216667	-0.020657	1.860885	0.191676	-0.037764	1.860885	0.133342	-0.037764	1.532493	0.108339	-0.031672	1.423030	0.066665	-0.024059	1.313566	0.833359	-0.175698	9.740879	0.000000	0.000000	23.450352	-2.740263	-5.694755	16.620108	-2.260864	76.853171	26.881486	71.311946	-13.938869	-5.927536	24.239448	-0.021235	103.101384	31.544769	33.699168	-10.467036	4.192844
0.266667	0.470336	-4.222923	79.719176	0.259111	0.873876	0.623333	8.610711	0.233167	3.037959	14.221888	0.248219	37.804410	-12.728501	0.000000	7.854683	2.300092	38.500245	15.588653	0.272073	32.256938	-1.966308	0.000000	0.117806	-0.028453	1.744911	0.218777	-0.037842	1.853968	0.193543	-0.069180	1.853968	0.134640	-0.069180	1.526797	0.109394	-0.058021	1.417740	0.067314	-0.044073	1.308683	0.841474	-0.321864	9.704671	0.000000	0.000000	23.348337	-2.675240	-5.776029	16.486692	-2.175159	75.266418	26.930160	70.986564	-13.414944	-5.462072	24.474133	0.060968	102.314170	31.401548	37.946487	-10.354718	5.330832
0.283333	0.313318	-4.236691	79.716750	0.259128	0.873246	0.623309	8.642610	-0.025156	1.698256	14.518504	0.253396	37.928063	-11.856804	0.000000	7.857951	2.452645	38.505765	15.701911	0.274050	32.153557	-1.780952	0.000000	0.120210	-0.048763	1.740351	0.223243	-0.064855	1.849123	0.197494	-0.118563	1.849123	0.137389	-0.118563	1.522807	0.111627	-0.099438	1.414035	0.068688	-0.075534	1.305264	0.858651	-0.551620	9.679312	0.000000	0.000000	23.320876	-2.545036	-5.849471	16.433570	-2.041232	73.694732	26.829060	72.794792	-13.171980	-5.004397	24.775987	0.155328	101.388813	31.217856	42.314769	-10.282869	6.428956
